<svg xmlns="http://www.w3.org/2000/svg" width="32.186" height="29.56" viewBox="0 0 16.093 14.78"><path data-name="200% icon_home.svg" d="M11.953 14.79h-7.83a2 2 0 01-1.99-2.01V8.56a.711.711 0 111.422 0v4.22a.566.566 0 00.568.57h7.83a.566.566 0 00.569-.57V8.56a.711.711 0 111.422 0v4.22a2 2 0 01-1.991 2.01zm3.433-6.49a.712.712 0 01-.507-.21L8.727 1.74a.884.884 0 00-1.378 0L1.198 8.09a.706.706 0 01-1 .01.729.729 0 01-.01-1.02L6.339.73a2.344 2.344 0 013.409 0l6.151 6.35a.729.729 0 01-.01 1.02.688.688 0 01-.503.2zM8.273 6.13h-.469a1.2 1.2 0 00-1.19 1.21v1.93a.666.666 0 00.661.67h1.527a.666.666 0 00.661-.67V7.34a1.2 1.2 0 00-1.19-1.21z" fill-rule="evenodd"/></svg>