<svg xmlns="http://www.w3.org/2000/svg" width="67.874" height="31.126" viewBox="0 0 33.937 15.563"><path data-name="200% icon_pop.svg" d="M24.419 14.977c.129-.126.289-.3.3-.289a.715.715 0 00.647.138c1.159-.2 2.318-.406 3.481-.573.42-.06.607-.542 1.092-.493a.711.711 0 00.82-.39.935.935 0 00.816-.428 2.179 2.179 0 01.343-.174 2.237 2.237 0 01.94-.959 2.3 2.3 0 01.433-.974 2.887 2.887 0 00.514-.376c-.11-.473.235-.863.137-1.321-.128-.6-.208-1.2-.306-1.808a.832.832 0 00-.419-.813.847.847 0 00-.423-.811.609.609 0 00-.4-.516 1 1 0 01-.341-.4 2.477 2.477 0 00-.5-.453 2.168 2.168 0 00-.278-.417c-.6.076-.582-.6-1.007-.767a5.172 5.172 0 01-1.041-.717c-.382-.274-.787-.522-1.14-.83a1.93 1.93 0 00-.86-.351 2.328 2.328 0 01-1.076-.537 3.142 3.142 0 00-.731-.294 1.07 1.07 0 00-.657-.092c-.211-.008-.416-.142-.628-.161a2.41 2.41 0 00-.557.081c-.23.036-.461.067-.692.1-.264-.4-.71-.01-1.017-.235a.415.415 0 00-.239-.108c-.513.073-1.022.163-1.533.248a1.523 1.523 0 00-1.335-.069c-1.579.257-3.159.507-4.733.791a1.39 1.39 0 00-1.242.464c-.415.075-.827.163-1.244.22a.713.713 0 00-.674.4 1.217 1.217 0 00-.666.418 1.518 1.518 0 00-.465.477.36.36 0 01-.083.11c-.577.013-.772.59-1.191.8-.355.178-.37.656-.825.733a3.394 3.394 0 01-.89-.583c-.318-.2-.6-.473-.927-.641a5.875 5.875 0 00-1-.312 1.054 1.054 0 01-.129-.019 2 2 0 00-1.194-.62c-.328-.343-.86-.319-1.187-.613A1.083 1.083 0 001.27 1.65a.591.591 0 00-.511.565 3.318 3.318 0 01-.145.91 1.238 1.238 0 00-.133 1.04 7.9 7.9 0 00-.326.863.456.456 0 00-.059.251 1.2 1.2 0 01.023.8 1.1 1.1 0 00-.019.934 4.188 4.188 0 00.139.834c.133.455-.243.841-.095 1.33a16.875 16.875 0 01.369 2.08c.022.135.057.268.088.412a4.04 4.04 0 001.029.209c.371-.125.664.385 1.045.115a1.6 1.6 0 00.909.148c.677-.169 1.372-.269 2.06-.4.21-.5.828-.176 1.066-.494a1.59 1.59 0 011.145-.388 1.018 1.018 0 00.4-.354.3.3 0 01.443.135 1.271 1.271 0 00.433.811 3.37 3.37 0 00.84 1.017.468.468 0 01.224.31.747.747 0 00.444.652c.121.073.23.164.346.244a.222.222 0 00.117.064c.441-.128.62.416.975.4a4.138 4.138 0 01.842.4 1.029 1.029 0 01.73.316c.22.208.533.044.759.26a.6.6 0 00.521-.019c.357-.178.582.223.912.154.314-.067.64-.079.96-.115.36.4.835-.107 1.17.122a1.059 1.059 0 001.063 0c.38-.143.551.341.921.175a.65.65 0 01.788.048.552.552 0 00.388.022c1.119-.163 2.231-.349 3.288-.524zM8.545 8.497a4.132 4.132 0 00-.675.516c-.315.371-.958.032-1.186.583a.819.819 0 01-.394.09 1 1 0 00-.951.443c-.372.061-.743.12-1.113.189a.494.494 0 00-.084.108.8.8 0 01-.313.228 1.29 1.29 0 01-.935-.027 3.119 3.119 0 00-.932.012.779.779 0 01-.441-.325.412.412 0 01.041-.375.7.7 0 00.09-.52 3.011 3.011 0 01-.122-1.5 3.569 3.569 0 00-.089-1.494.379.379 0 01.1-.24c.279-.268-.122-.62.142-.912a1.2 1.2 0 00-.019-.934 1.808 1.808 0 00.432-.975c-.028-.145.3-.25.447-.146.3.221.6.452.85.647a1.487 1.487 0 01.868.049 3.134 3.134 0 01.837.393c.208.181.7-.028.668.478a3.4 3.4 0 011.536.862 2.722 2.722 0 001.438.5 2.164 2.164 0 01.266-.441c.147-.156.353-.254.515-.4a1.757 1.757 0 01.573-.568 1.726 1.726 0 00.714-.561c.205-.259.575-.051.728-.314a1.119 1.119 0 01.862-.347.363.363 0 00.216-.135c.147-.389.634-.124.809-.433a.986.986 0 01.88-.308 17.064 17.064 0 011.808-.3 2.271 2.271 0 00.522-.339 1.036 1.036 0 001.054.06 11.648 11.648 0 001.39-.232c.415-.1.741.327 1.193.115a9.661 9.661 0 011.1-.213 1.884 1.884 0 011.049.114 1.627 1.627 0 01.8-.024 1.249 1.249 0 00.933.036.4.4 0 01.248.069.465.465 0 00.516.083 1.761 1.761 0 01.624.17 2.756 2.756 0 011.857.664 3.248 3.248 0 00.935.573 2.131 2.131 0 01.834.447 8.348 8.348 0 01.69.487l.8.575c-.08.39.509.416.437.8a1.065 1.065 0 01.4.517c.156.26.45.439.592.7a3.708 3.708 0 00.288.885 1.334 1.334 0 01.332.876c.075.319.112.648.18 1.057-.082.095-.21.23-.323.378a1.753 1.753 0 01-.5.657 1.488 1.488 0 00-.678.651 2.575 2.575 0 00-.724.318c-.248.465-.963.03-1.162.6-.224.052-.452.091-.672.156-.824.242-1.779.017-2.484.692a.145.145 0 01-.134.022c-.243-.184-.459-.253-.607.1l-.833.132c-.232-.293-.416-.129-.6.064a.632.632 0 00-.637-.145c-.506.1-1.018.181-1.529.257s-1.011.132-1.517.2c-.5-.384-.982.043-1.474.012a.475.475 0 01-.256-.032.813.813 0 00-.921-.041 5.61 5.61 0 01-1.051-.14 2.3 2.3 0 01-1.569-.135 1.661 1.661 0 00-.378-.1 1.131 1.131 0 01-.8-.01 2.394 2.394 0 01-.738-.281c-.563.124-.9-.739-1.528-.362a.905.905 0 01-.167-.19.747.747 0 00-.222-.291.748.748 0 01-.816-.728 2.081 2.081 0 00-.232-.31 2.51 2.51 0 01-.59-1.176.589.589 0 00-.218-.622 4.571 4.571 0 00-.5-.615 2.737 2.737 0 01-.48-.324zm10.556-2.654c.367.126.65.213.925.32a1.4 1.4 0 01.739.268 1 1 0 01.845.378c.241.145.461.323.718.507.25-.041.527-.076.8-.14a.28.28 0 00.139-.206.32.32 0 00-.071-.252c-.217-.179-.453-.334-.682-.5a.786.786 0 00-.342-.231c-.468.058-.7-.432-1.1-.451a.662.662 0 01-.482-.213.835.835 0 00-.9-.146 5.789 5.789 0 01-.682-.5.727.727 0 00-.891-.046.709.709 0 000 .532.573.573 0 01-.022.527 5.042 5.042 0 00-.26.753c-.107.135.077.5-.028.64a1.051 1.051 0 00-.108.788 1.405 1.405 0 00-.181.626 3.7 3.7 0 01.11.624l.883.518h.147a1.585 1.585 0 011.2.044 1.415 1.415 0 00.673-.067 1.016 1.016 0 011.044.1l.716-.119.5-.526a2.045 2.045 0 00-.817-.791 2.668 2.668 0 00-.268 0 .994.994 0 01-.923-.091c-.1-.09-.138.374-.346.206a.655.655 0 00-.653-.08.857.857 0 01-.487-.208.843.843 0 01-.373-.062.687.687 0 01-.114-.522 7.054 7.054 0 01.249-.741 1.374 1.374 0 00.042-.939zm8.178 2.919a2.2 2.2 0 01.525 1.045l1.51-.25.316-.441-.136-.822a2.627 2.627 0 00-1.392-.713l-.823 1.181z" fill="#b7340a" fill-rule="evenodd"/></svg>